<svg xmlns="http://www.w3.org/2000/svg" viewBox="0 0 73 73">
  <g fill="none">
    <path fill="#4ACFD9" d="m36 22-9-9a10 10 0 0 0-14 0c-4 4-4 10 0 14l9 9a10 10 0 0 0 14 0 10 10 0 0 0 0-14Zm-13-6 10 10a5 5 0 0 1-7 7l-5-5-5-5a5 5 0 0 1 7-7Zm37 30-9-9a10 10 0 0 0-14 0 10 10 0 0 0 0 14l9 9a10 10 0 0 0 14 0 10 10 0 0 0 0-14ZM50 57l-5-5-5-5a5 5 0 0 1 7-7l10 10a5 5 0 0 1-7 7Z"/>
    <path fill="#0295AA" d="M47 44 28 24a2 2 0 0 0-4 4l20 19a2 2 0 0 0 3 0 2 2 0 0 0 0-3Z"/>
    <path fill="#FD6A33" d="M45 28a1 1 0 0 1 0-1l4-5a1 1 0 0 1 2 1l-5 5h-1Zm-3-1-1-1v-7a1 1 0 1 1 2 0v7l-1 1Zm11 5h-6a1 1 0 1 1 0-2h6a1 1 0 1 1 0 2Z"/>
  </g>
</svg>